<svg id="Camada_1" data-name="Camada 1" xmlns="http://www.w3.org/2000/svg" viewBox="0 0 382 65.89"><defs><style>.cls-1,.cls-4{fill:#6f6f6e;}.cls-1,.cls-2{fill-rule:evenodd;}.cls-2,.cls-3{fill:#225c29;}</style></defs><title>TELEVIT LOGO</title><path class="cls-1" d="M16.39,40.75A30.16,30.16,0,0,0,14,38.56c-.89-.75-1.87-1.53-2.88-2.33a67.54,67.54,0,0,1-6.29-5.42A16.91,16.91,0,0,1,.54,24.22a10.24,10.24,0,0,1-.32-5.34,8.18,8.18,0,0,1,2.55-4.35,8.35,8.35,0,0,1,1.76-1.21,8.16,8.16,0,0,1,4.14-.89,7.57,7.57,0,0,1,2.05.43,7.11,7.11,0,0,1,3.55,2.9,10.57,10.57,0,0,1,1.52,4.87L15.9,22c.17,2.15.36,4.57.74,7.4a101.64,101.64,0,0,0,1.92,10.15l1.12,4.68Z"/><path class="cls-1" d="M38,42.54c-1.24.42-2.45.83-3.65,1.27h0c-1.12.42-2.17.85-3.1,1.31L26.5,47.48l3.15-4.26c2.51-3.4,4.43-6.32,6-8.88s2.72-4.76,3.74-6.68L40,26.39h0a11.57,11.57,0,0,1,3.56-4.16,7.75,7.75,0,0,1,4.68-1.41,7.43,7.43,0,0,1,5.4,2.65,7.28,7.28,0,0,1,1.09,1.74,7.64,7.64,0,0,1,.44,4.8,11,11,0,0,1-2.45,4.71,19.45,19.45,0,0,1-6.68,4.74A76.68,76.68,0,0,1,38,42.54"/><path class="cls-2" d="M25.44,34.82a17.45,17.45,0,0,1-2-4.57,36.85,36.85,0,0,1-1.15-6.1,44.31,44.31,0,0,1-.22-6.51,47.2,47.2,0,0,1,.71-6.52A15.67,15.67,0,0,1,23.75,8a14,14,0,0,1,1.52-2.81,12,12,0,0,1,1.66-1.93,9.37,9.37,0,0,1,1.93-1.38A7.41,7.41,0,0,1,31.18,1a6.92,6.92,0,0,1,2.4,0,7.52,7.52,0,0,1,1.7.52,9.59,9.59,0,0,1,1.63.92c6,4.15,1.3,11.64,1,12.14h0l0,0a64.85,64.85,0,0,0-3.73,6.62c-1.42,2.81-3,6-4.56,9.36q-1.44,3-2.89,6Z"/><path class="cls-3" d="M328.52,13.18V7.29h33.31a4.23,4.23,0,0,1,3.38,1.55,6.29,6.29,0,0,1,1.16,3.94h0l0,1.9h-13V37.74a3.39,3.39,0,0,1-.64,2.12,2.43,2.43,0,0,1-1.91.89h-9.25V14.68h-13Zm-15.9,24.7V7.29h7.17a4.24,4.24,0,0,1,3.38,1.55,6.29,6.29,0,0,1,1.16,3.94v28h-9.27a2.34,2.34,0,0,1-1.83-.86A3.24,3.24,0,0,1,312.62,37.88ZM260.52,7.29a3.94,3.94,0,0,1,3.56,1.85l.22.28,15.07,21.24,17-22.77a2.62,2.62,0,0,1,2.14-.6h10.75l-4.76,6.61C301,18.69,290.12,36,285.73,39.36a7.58,7.58,0,0,1-1.81,1,9.89,9.89,0,0,1-2.08.57,13.75,13.75,0,0,1-2.38.19,13.36,13.36,0,0,1-2.34-.19,9.46,9.46,0,0,1-2.06-.58,7.64,7.64,0,0,1-1.79-1c-4.7-3.62-16.38-22.22-20.26-27.59l-3.22-4.47h10.73ZM215.45,31.88h0Zm-11.67-.81V16.4a7.46,7.46,0,0,1,.39-2.43,6.77,6.77,0,0,1,1.16-2.1,8,8,0,0,1,1.82-1.64A12.27,12.27,0,0,1,209.58,9a18.32,18.32,0,0,1,2.57-.76,29,29,0,0,1,3.09-.53c1.11-.15,2.3-.25,3.57-.32s2.66-.1,4.08-.1h21a2.4,2.4,0,0,1,1.91.89,3.38,3.38,0,0,1,.64,2.12v4.38h-27a7.39,7.39,0,0,0-1,.05,6.44,6.44,0,0,0-.85.16,4.23,4.23,0,0,0-.71.24,5,5,0,0,0-.61.33,3.87,3.87,0,0,0-.47.38,1.91,1.91,0,0,0-.28.31h0a1.36,1.36,0,0,0-.11.2.88.88,0,0,0,0,.17v3.68h30.9v7.44H215.5V32a3.23,3.23,0,0,0,.49.41h0a3.28,3.28,0,0,0,.64.35,5.18,5.18,0,0,0,.84.29h0a7.68,7.68,0,0,0,1,.2l.74.07,1.1,0,1.45,0h24.42v4.38a3.39,3.39,0,0,1-.64,2.12,2.43,2.43,0,0,1-1.91.89H221.34a44,44,0,0,1-7.32-.54,19.22,19.22,0,0,1-5.4-1.67,9,9,0,0,1-3.6-3.09A7.86,7.86,0,0,1,203.78,31.07Zm-45.84.52V7.29h7.17a4.26,4.26,0,0,1,3.38,1.55,6.36,6.36,0,0,1,1.16,3.94V31.55a2,2,0,0,0,0,.45.9.9,0,0,0,.13.28h0a2.28,2.28,0,0,0,.22.23,2.11,2.11,0,0,0,.4.23,4.75,4.75,0,0,0,.75.24,9,9,0,0,0,1,.2c.41.06.87.1,1.36.13s1,0,1.65,0H199.6v4.38a3.39,3.39,0,0,1-.64,2.12,2.45,2.45,0,0,1-1.92.89H175.4c-1.29,0-2.51,0-3.68-.13s-2.25-.21-3.27-.37a26.55,26.55,0,0,1-2.87-.64,17.28,17.28,0,0,1-2.44-.91A11.57,11.57,0,0,1,161,37.42a8.26,8.26,0,0,1-1.63-1.6,7,7,0,0,1-1-2A7.25,7.25,0,0,1,157.94,31.59Zm-50.54-.52V16.4a7.73,7.73,0,0,1,.38-2.43,7,7,0,0,1,1.16-2.1,8,8,0,0,1,1.82-1.64A11.84,11.84,0,0,1,113.2,9a17.55,17.55,0,0,1,2.57-.76,29.28,29.28,0,0,1,3.08-.53c1.12-.15,2.31-.25,3.58-.32s2.66-.1,4.08-.1h21a2.43,2.43,0,0,1,1.92.89,3.44,3.44,0,0,1,.64,2.12v4.38h-27a7.11,7.11,0,0,0-1.82.21,4,4,0,0,0-.71.24,4.38,4.38,0,0,0-.61.33,3.87,3.87,0,0,0-.47.38h0a2.73,2.73,0,0,0-.28.33h0a.75.75,0,0,0-.1.2.51.51,0,0,0,0,.17v3.68H150v7.44h-30.9V32a3.42,3.42,0,0,0,.5.41,3.59,3.59,0,0,0,.64.35,5,5,0,0,0,.85.29,7.37,7.37,0,0,0,1,.2l.73.07,1.11,0,1.45,0h24.42v4.38a3.39,3.39,0,0,1-.64,2.12,2.45,2.45,0,0,1-1.92.89H125a44,44,0,0,1-7.32-.54,19.22,19.22,0,0,1-5.4-1.67,9,9,0,0,1-3.6-3.09A7.85,7.85,0,0,1,107.4,31.07ZM65.35,13.18V7.29H98.69a4.3,4.3,0,0,1,3.22,1.36,5.73,5.73,0,0,1,1.3,3.52v2.51h-13V37.74a3.39,3.39,0,0,1-.64,2.12,2.43,2.43,0,0,1-1.91.89H78.38V14.68h-13Z"/><path class="cls-4" d="M291.12,63.62V51.51a.86.86,0,0,1,.85-.86h2.46c1,.05,2.55,1,2.55,1.87V64.87a.87.87,0,0,1-.86.86h-3.26a1.73,1.73,0,0,1-1.29-.65h0a2.26,2.26,0,0,1-.45-1.45"/><path class="cls-4" d="M266.73,61.42V55a3.6,3.6,0,0,1,2.42-3.41,15.26,15.26,0,0,1,6.12-1h10.12a1.74,1.74,0,0,1,1.29.65h0a2.33,2.33,0,0,1,.45,1.45v.68a.85.85,0,0,1-.86.85H274.63l-.23,0a9.2,9.2,0,0,0-1.12.14,2.09,2.09,0,0,0-.56.17.21.21,0,0,0-.1.08h0a.44.44,0,0,0,0,.19v6.55l0,.1h0a.52.52,0,0,0,.29.27,3.08,3.08,0,0,0,1.12.28h6.89a5.19,5.19,0,0,0,1.8-.24c.24-.09.39-.2.43-.32V57.25a.85.85,0,0,1,.86-.85h2.46a2.48,2.48,0,0,1,1.88.92A3.5,3.5,0,0,1,289,59.5v1.86a3.55,3.55,0,0,1-.22,1.28,2.85,2.85,0,0,1-.7,1,5.84,5.84,0,0,1-1.34,1,7,7,0,0,1-1.61.63,12.92,12.92,0,0,1-1.9.32c-.71.07-1.48.11-2.32.11h-5.75c-.77,0-1.48,0-2.11-.09H273a12.6,12.6,0,0,1-1.65-.25h0a13.84,13.84,0,0,1-2-.61,5.84,5.84,0,0,1-1.42-.8,3.25,3.25,0,0,1-.9-1.14,3.3,3.3,0,0,1-.3-1.41"/><path class="cls-4" d="M220,61.51v-10a.85.85,0,0,1,.85-.86h2.47a2.44,2.44,0,0,1,1.88.91,3.47,3.47,0,0,1,.67,2.18v7.76a.28.28,0,0,0,0,.18c0,.06.11.1.22.15h0A3.41,3.41,0,0,0,227,62a11.26,11.26,0,0,0,1.42.07h10.91a.85.85,0,0,1,.85.86v.68a2.28,2.28,0,0,1-.45,1.45l-.05.06a1.71,1.71,0,0,1-1.33.59h-9.84a23.42,23.42,0,0,1-3.33-.22,10.43,10.43,0,0,1-2.56-.69,4.63,4.63,0,0,1-1.87-1.31,3,3,0,0,1-.71-2"/><path class="cls-4" d="M204.49,62.08h4.44a16.29,16.29,0,0,0,1.72-.08,3.85,3.85,0,0,0,1-.21.6.6,0,0,0,.27-.2.67.67,0,0,0,.08-.35V55.16a.77.77,0,0,0-.08-.38.62.62,0,0,0-.26-.2,3.87,3.87,0,0,0-1-.21,14.26,14.26,0,0,0-1.75-.09h-4.44a14.32,14.32,0,0,0-1.76.09,3.57,3.57,0,0,0-1,.22.51.51,0,0,0-.29.21.6.6,0,0,0-.08.36v6a.66.66,0,0,0,.08.37.62.62,0,0,0,.29.21,4.47,4.47,0,0,0,1,.22,17,17,0,0,0,1.76.08m-9-1V55.24a3.62,3.62,0,0,1,.73-2.26,4.72,4.72,0,0,1,2-1.46h0a12.07,12.07,0,0,1,2.9-.67,32.41,32.41,0,0,1,4-.21h3.16a32.41,32.41,0,0,1,4,.21,12,12,0,0,1,2.89.67l0,0a4.56,4.56,0,0,1,2,1.44,3.62,3.62,0,0,1,.73,2.26v5.88a3.6,3.6,0,0,1-.73,2.26,4.64,4.64,0,0,1-2,1.46h0a12.35,12.35,0,0,1-2.89.67,32.41,32.41,0,0,1-4,.21h-3.16a21.7,21.7,0,0,1-5-.5,7.72,7.72,0,0,1-3.38-1.59h0a4,4,0,0,1-.9-1.15A3,3,0,0,1,195.49,61.12Z"/><path class="cls-4" d="M171.64,63.64V53.48a2.4,2.4,0,0,1,1.28-2.22,6.08,6.08,0,0,1,3-.61l.66,0,.73.06a5,5,0,0,1,1.74.47,4.35,4.35,0,0,1,1.38,1.07l7.12,8V51.62a.85.85,0,0,1,.85-.85h2.49a2.46,2.46,0,0,1,1.87.91,3.44,3.44,0,0,1,.65,2.16v9.45a1.87,1.87,0,0,1-.39,1.14,3,3,0,0,1-.94.78l-.05,0a5.15,5.15,0,0,1-1.2.45,8.75,8.75,0,0,1-4.18-.09,4.65,4.65,0,0,1-2-1.31l-7.13-7.92v8.51a.85.85,0,0,1-.85.85h-3.23a1.71,1.71,0,0,1-1.28-.64h0a2.26,2.26,0,0,1-.45-1.44"/><path class="cls-4" d="M155,61.5h0V54.84c0-.11.09-.2.27-.28a4.9,4.9,0,0,1,1.92-.28h11.55a.85.85,0,0,0,.86-.85v-.72h0a2.33,2.33,0,0,0-.47-1.43,1.73,1.73,0,0,0-1.27-.62H156.59a15.11,15.11,0,0,0-2.89.25,8.93,8.93,0,0,0-2.34.77q-2.28,1.17-2.28,3.12v6.88a2.91,2.91,0,0,0,.94,2.17,5.75,5.75,0,0,0,2.38,1.28,12.67,12.67,0,0,0,1.94.46,11.69,11.69,0,0,0,1.93.16h11.35a1.71,1.71,0,0,0,1.33-.59l.06-.06a2.33,2.33,0,0,0,.45-1.45v-.68a.87.87,0,0,0-.86-.86H157.13a5.3,5.3,0,0,1-1-.09,3,3,0,0,1-.77-.24,1.23,1.23,0,0,1-.39-.26h0"/><path class="cls-4" d="M126.41,61.28V54.83a3.15,3.15,0,0,1,.79-2.14,4.8,4.8,0,0,1,2.08-1.3,13.11,13.11,0,0,1,2.72-.58,32.59,32.59,0,0,1,3.65-.18h9.65a1.73,1.73,0,0,1,1.29.65h0a2.28,2.28,0,0,1,.46,1.45v.68a.87.87,0,0,1-.86.86H134.05a3.57,3.57,0,0,0-.85.09,1.83,1.83,0,0,0-.59.24,1.14,1.14,0,0,0-.32.26v1.44h13.87a.85.85,0,0,1,.85.86v1.95a.85.85,0,0,1-.85.85H132.28v1.58a1.49,1.49,0,0,0,.43.26,3.73,3.73,0,0,0,.87.2c.2,0,.49,0,.86.06h11.62a.86.86,0,0,1,.86.86v.77a.49.49,0,0,1,0,.12,2.16,2.16,0,0,1-.48,1.29,1.73,1.73,0,0,1-1.34.6H134.92a15,15,0,0,1-6.11-1,3.69,3.69,0,0,1-2.4-3.47"/><path class="cls-4" d="M106,53.42V51.49a.85.85,0,0,1,.86-.85h14.91a2.45,2.45,0,0,1,1.77.79,3.53,3.53,0,0,1,.79,2,.86.86,0,0,1-.86.86h-5.35v9.34a2.34,2.34,0,0,1-.45,1.45l-.06.06a1.71,1.71,0,0,1-1.33.59H113a.86.86,0,0,1-.86-.86V54.28h-5.35a.85.85,0,0,1-.86-.86"/><path class="cls-4" d="M251.23,62.08h4.44A16.64,16.64,0,0,0,257.4,62a3.86,3.86,0,0,0,1-.21.6.6,0,0,0,.27-.2.65.65,0,0,0,.08-.35V55.16a.77.77,0,0,0-.08-.38.62.62,0,0,0-.26-.2,3.87,3.87,0,0,0-1-.21,14.15,14.15,0,0,0-1.75-.09h-4.44a14.44,14.44,0,0,0-1.76.09,3.66,3.66,0,0,0-1,.22.55.55,0,0,0-.29.21.69.69,0,0,0-.08.36v6a.75.75,0,0,0,.08.37.68.68,0,0,0,.29.21,4.61,4.61,0,0,0,1,.22,17.13,17.13,0,0,0,1.76.08m-9-1V55.24A3.62,3.62,0,0,1,243,53a4.72,4.72,0,0,1,2-1.46h0a12,12,0,0,1,2.89-.67,32.41,32.41,0,0,1,4-.21H255a32.41,32.41,0,0,1,4,.21,11.87,11.87,0,0,1,2.89.67l.05,0a4.59,4.59,0,0,1,2,1.44,3.62,3.62,0,0,1,.73,2.26v5.88a3.6,3.6,0,0,1-.73,2.26,4.64,4.64,0,0,1-2,1.46h0a12.35,12.35,0,0,1-2.89.67,32.41,32.41,0,0,1-4,.21h-3.16a21.76,21.76,0,0,1-5-.5,7.68,7.68,0,0,1-3.37-1.59h0a3.88,3.88,0,0,1-.9-1.15A3,3,0,0,1,242.23,61.12Z"/><path class="cls-4" d="M317.39,60.21l-4.76-6-4.62,6Zm-18.07,4.08c.79-1,9.43-11.94,9.43-11.94a4.19,4.19,0,0,1,1.67-1.28l.05,0a5.27,5.27,0,0,1,2.12-.4,6.36,6.36,0,0,1,2.35.41,4.12,4.12,0,0,1,1.77,1.29c2.7,3.64,5.7,7.16,8.44,10.79h0a2.47,2.47,0,0,1,.62,1.35c0,.76-.4,1.24-1.57,1.23h-3.11a.88.88,0,0,1-.7-.36L318.48,63H307l-2.25,2.38c-.81.52-3.73.38-4.78.38a.85.85,0,0,1-.84-.85A.89.89,0,0,1,299.32,64.29Z"/><path class="cls-2" d="M380.22,9.29a4.22,4.22,0,1,0,1.23,3,4.22,4.22,0,0,0-1.23-3m-3-1.79a4.75,4.75,0,1,1-3.37,1.39A4.74,4.74,0,0,1,377.23,7.5Zm-1.05,4.2h.64a3.62,3.62,0,0,0,.77,0,.52.52,0,0,0,.24-.2.62.62,0,0,0,.09-.34.58.58,0,0,0-.12-.38.48.48,0,0,0-.32-.17,4.09,4.09,0,0,0-.63,0h-.67Zm-.87,2.64V9.77h1.82a3,3,0,0,1,1,.12,1,1,0,0,1,.5.44,1.43,1.43,0,0,1,.19.72,1.21,1.21,0,0,1-1.13,1.27,2,2,0,0,1,.46.38,4.84,4.84,0,0,1,.49.75l.52.89h-1l-.62-1a7,7,0,0,0-.45-.67.64.64,0,0,0-.26-.19,1.51,1.51,0,0,0-.44-.05h-.17v1.91Z"/></svg>